<svg xmlns="http://www.w3.org/2000/svg" viewBox="0 0 330 330"><path d="M270 105V15c0-8.284-6.716-15-15-15H75c-8.284 0-15 6.716-15 15v90c0 3.978 1.58 7.794 4.394 10.606l30.923 30.923C73.667 165.776 60 193.82 60 225c0 57.897 47.103 105 105 105s105-47.103 105-105c0-31.18-13.666-59.223-35.316-78.47l30.923-30.924C268.42 112.794 270 108.978 270 105zm-105 15c-5.093 0-10.1.372-15 1.076V30h30v91.076c-4.9-.704-9.907-1.076-15-1.076zM90 30h30v98.787l-30-30V30zm150 195c0 41.355-33.645 75-75 75s-75-33.645-75-75 33.645-75 75-75 75 33.645 75 75zm0-126.213l-30 30V30h30v68.787z"/></svg>