<svg xmlns="http://www.w3.org/2000/svg" viewBox="0 0 127.391 127.391"><path fill="#FFF80D" d="M122.356 52.63L125.89 37l-19.47 9.12 7.744 10.1-26.73 11.733-15.76-12.37 7.366-12.522L63.696 16.98 48.35 43.064l7.368 12.52-15.762 12.37-26.728-11.73L20.97 46.12 1.5 37.003 5.035 52.63l-.015-.01 3.49 15.422 8.144 42.368h94.08l8.14-42.336 3.497-15.453"/><path fill="#FFD00B" d="M124.08 45.005l-13.623 6.382 3.707 4.836v7.156l-26.73 11.73-15.76-12.37v-7.156l5.26-8.943-13.238-22.503-13.24 22.504 5.262 8.944v7.156L39.956 75.11 13.228 63.38v-7.157l3.706-4.836-13.622-6.382 1.723 7.624-.015-.01 3.49 15.422 8.144 42.368h94.08l8.14-42.336 3.497-15.453-.014.01"/><circle cx="63.695" cy="86.587" r="15.735" fill="#FFAF10"/><path d="M79.43 86.587c0 6.658-7.045 12.054-15.735 12.054S47.96 93.246 47.96 86.588c0-6.65 7.046-12.054 15.735-12.054 8.69 0 15.736 5.403 15.736 12.054z" fill="#FF860D"/><path d="M47.96 86.587c0 8.69 7.045 15.737 15.734 15.737 8.69 0 15.736-7.046 15.736-15.737H47.96z" fill="#FFF9DE"/><path d="M63.694 98.64c8.69 0 15.736-5.395 15.736-12.053H47.96c0 6.658 7.045 12.054 15.734 12.054z" fill="#FFF3C2"/><path d="M126.83 35.834c-.444-.358-1.057-.433-1.576-.19l-19.47 9.12c-.41.192-.713.56-.82 1.002-.107.44-.01.908.267 1.268l6.58 8.584L87.655 66.22 73.63 55.215l6.703-11.39c.276-.47.276-1.053 0-1.522L64.99 16.22c-.27-.458-.763-.74-1.294-.74-.53 0-1.023.282-1.293.74L47.058 42.302c-.276.47-.276 1.052 0 1.52l6.702 11.392L39.736 66.22 15.58 55.617l6.58-8.584c.276-.36.374-.827.267-1.268-.107-.44-.41-.81-.82-1.003l-19.47-9.12c-.52-.243-1.132-.168-1.577.19-.446.36-.65.942-.522 1.5l3.488 15.42c.006.067.017.134.03.2l3.48 15.373 8.146 42.368c.136.706.754 1.217 1.473 1.217h94.08c.72 0 1.338-.51 1.474-1.216l8.13-42.288 3.495-15.453c.015-.066.025-.133.03-.2l3.49-15.42c.126-.558-.078-1.14-.524-1.5zM77.85 88.087c-.752 7.148-6.813 12.737-14.156 12.737-7.342 0-13.402-5.59-14.154-12.737h28.31zm-28.31-3c.753-7.147 6.813-12.735 14.155-12.735 7.343 0 13.403 5.59 14.156 12.735H49.54zm71.353-32.79c-.015.067-.025.133-.03.198l-3.46 15.296-7.906 41.12H65.195v-5.162c8.802-.764 15.735-8.163 15.735-17.16 0-9.505-7.732-17.236-17.236-17.236-9.503 0-17.234 7.73-17.234 17.235 0 9 6.933 16.398 15.735 17.16v5.163h-44.3L9.97 67.71 6.53 52.498c-.007-.066-.018-.133-.032-.2L3.64 39.66l15.005 7.028-6.607 8.622c-.28.366-.377.84-.263 1.286.115.446.43.815.85 1l26.73 11.73c.506.222 1.094.148 1.528-.193l15.762-12.37c.59-.463.748-1.292.367-1.94l-6.92-11.76 13.605-23.125L77.3 43.063l-6.92 11.76c-.38.648-.224 1.478.367 1.942l15.762 12.37c.434.343 1.02.415 1.527.194l26.73-11.733c.42-.185.734-.554.85-1 .114-.446.018-.92-.263-1.286l-6.608-8.62 15.005-7.03-2.857 12.638z" fill="#33363A"/><path d="M43.762 103.824h-2.356c-.828 0-1.5-.672-1.5-1.5s.672-1.5 1.5-1.5h2.356c.828 0 1.5.672 1.5 1.5s-.672 1.5-1.5 1.5zM36.488 103.824H34.13c-.827 0-1.5-.672-1.5-1.5s.673-1.5 1.5-1.5h2.358c.828 0 1.5.672 1.5 1.5s-.67 1.5-1.5 1.5zM29.214 103.824H15.73c-.827 0-1.5-.672-1.5-1.5s.673-1.5 1.5-1.5h13.484c.828 0 1.5.672 1.5 1.5s-.672 1.5-1.5 1.5zM48.155 103.825c-.39 0-.78-.16-1.06-.44s-.44-.67-.44-1.06c0-.4.16-.78.44-1.06.56-.56 1.56-.56 2.12 0 .28.28.44.67.44 1.06s-.16.78-.44 1.06-.66.44-1.06.44zM85.986 103.824H83.63c-.828 0-1.5-.672-1.5-1.5s.672-1.5 1.5-1.5h2.356c.828 0 1.5.672 1.5 1.5s-.67 1.5-1.5 1.5zM93.26 103.824h-2.357c-.828 0-1.5-.672-1.5-1.5s.672-1.5 1.5-1.5h2.357c.828 0 1.5.672 1.5 1.5s-.672 1.5-1.5 1.5zM111.66 103.824H98.177c-.828 0-1.5-.672-1.5-1.5s.672-1.5 1.5-1.5h13.483c.828 0 1.5.672 1.5 1.5s-.672 1.5-1.5 1.5zM79.236 103.825c-.39 0-.78-.16-1.06-.44s-.44-.67-.44-1.06c0-.4.16-.78.44-1.06.56-.56 1.56-.56 2.12 0 .28.28.44.67.44 1.06s-.16.78-.44 1.06-.67.44-1.06.44z" fill="#33363A"/><circle cx="63.695" cy="88.391" r="5.202" fill="#A7BBC1"/><circle cx="63.695" cy="86.621" r="5.202" fill="#FFF"/><path d="M60.016 90.3c-2.03-2.03-2.03-5.327 0-7.357 2.032-2.03 5.327-2.03 7.358 0" fill="#D8E5EA"/><path d="M63.695 93.324c-1.79 0-3.475-.698-4.74-1.965-1.266-1.266-1.963-2.948-1.963-4.74s.697-3.474 1.963-4.738c2.613-2.613 6.866-2.612 9.48 0 1.266 1.265 1.963 2.948 1.963 4.74 0 1.79-.698 3.474-1.965 4.738-1.264 1.266-2.947 1.964-4.738 1.964zm0-10.403c-.948 0-1.897.36-2.62 1.083-.698.7-1.083 1.63-1.083 2.618s.385 1.92 1.084 2.617c1.4 1.402 3.84 1.4 5.236 0 .7-.698 1.086-1.627 1.086-2.616s-.385-1.918-1.085-2.616c-.72-.723-1.67-1.083-2.618-1.083z" fill="#33363A"/></svg>