<svg xmlns="http://www.w3.org/2000/svg" viewBox="0 0 55 55"><path d="M27.5 0C12.336 0 0 12.337 0 27.5c0 7.976 3.417 15.167 8.86 20.195l-.072.098.705.604c3.904 3.342 8.655 5.483 13.68 6.26.357.056.716.102 1.076.144.39.046.78.086 1.175.113.58.043 1.162.07 1.75.078.062 0 .123.01.185.01l.052-.003.09.002C42.663 55 55 42.662 55 27.5S42.664 0 27.5 0zm-.086 52.998c-.09 0-.178-.006-.267-.007-.478-.003-.954-.028-1.43-.06-5.297-.367-10.153-2.358-14.073-5.48.38-.36.802-.666 1.266-.9l9.137-3.922c.74-.368 1.19-1.186 1.628-2.063.274-.552.243-1.195-.083-1.72-.327-.53-.893-.845-1.513-.845l-6.348.005c-.022-.002-2.195-.222-3.83-.924-.308-.13-.437-.234-.474-.24.015-.042.05-.124.14-.25 2.265-3.225 6.084-9.644 6.215-16.41.008-.38.303-9.287 9.332-9.36 5.365.043 7.902 3.188 9.086 5.82.592 1.312.94 2.878 1.066 4.784.39 5.9 3.1 11.466 5.305 15.095.115.187.15.417.097.63-.05.197-.168.36-.335.46-1.038.62-2.39.408-2.397.405L33.273 38c-.713 0-1.33.45-1.57 1.146-.244.702-.03 1.472.535 1.917.71.56.992.734 1.104.794l7.62 4.61c.653.356 1.228.844 1.69 1.433-4.42 3.33-9.67 5.086-15.238 5.098zm16.836-6.296c-.633-.815-1.415-1.49-2.293-1.97l-7.62-4.608c-.015-.01-.07-.04-.19-.124h5.54c.437.06 2.176.222 3.67-.673.627-.374 1.072-.977 1.25-1.695.18-.727.062-1.51-.327-2.15-2.088-3.44-4.655-8.692-5.018-14.19-.143-2.147-.547-3.938-1.237-5.473-1.424-3.165-4.47-6.948-10.91-7-10.964.09-11.33 11.205-11.332 11.32-.125 6.47-4.134 12.854-5.85 15.3-.468.664-.617 1.31-.445 1.92.188.66.72 1.17 1.625 1.56 1.917.823 4.322 1.066 4.52 1.08h6.085c-.167.325-.395.736-.512.814l-9.113 3.908-.053.024c-.713.356-1.35.83-1.914 1.395C5.132 41.484 2 34.853 2 27.5 2 13.44 13.44 2 27.5 2S53 13.44 53 27.5c0 7.653-3.394 14.524-8.75 19.202z"/></svg>