<svg xmlns="http://www.w3.org/2000/svg" viewBox="0 0 60 60"><path d="M60 30C60 13.458 46.542 0 30 0S0 13.458 0 30c0 6.142 1.858 11.857 5.038 16.618l-.002.02.207.304c.18.263.374.512.562.768.076.104.15.21.23.313.237.316.482.626.73.93.073.09.146.176.22.263C8.14 50.6 9.41 51.87 10.776 53.01c.083.07.165.14.25.208.297.243.598.48.905.712.124.094.25.185.375.277.292.214.584.426.884.63.16.108.327.21.49.316.415.27.835.53 1.263.78.298.173.597.346.902.51.184.1.372.19.558.286.324.165.65.326.982.48.167.077.334.153.502.227.383.17.77.33 1.162.485.12.048.24.097.362.144 1.073.406 2.175.754 3.302 1.036.046.012.093.02.14.032.497.122 1 .23 1.508.328.135.026.27.05.405.073l.06.01-.004.02.528.074c.12.018.24.032.36.05l.11.014.063.006.163.02c.164.023.327.044.49.064.398.046.797.082 1.2.112.083.006.167.016.25.022l.29.02c.57.03 1.145.052 1.724.052s1.153-.02 1.724-.053l.297-.02c.085-.006.17-.016.254-.022.398-.03.795-.066 1.19-.11.163-.02.327-.042.49-.064.065-.008.13-.015.194-.024l.06-.006.102-.014c.113-.016.227-.03.34-.048l.56-.08-.003-.02.027-.005c.135-.024.27-.047.405-.073.507-.097 1.01-.206 1.508-.328.046-.01.093-.02.14-.032 1.126-.282 2.228-.63 3.3-1.036.123-.046.244-.096.366-.144.39-.154.778-.315 1.16-.484.17-.074.337-.15.503-.227.33-.155.658-.316.982-.482.186-.095.373-.188.557-.286.305-.164.603-.337.902-.51.427-.25.848-.51 1.263-.78.163-.106.328-.208.488-.317.3-.203.593-.415.885-.63.125-.09.25-.182.375-.276.306-.232.608-.47.906-.713.084-.07.166-.14.25-.208 1.365-1.143 2.635-2.41 3.793-3.796l.215-.26c.25-.306.494-.616.732-.932.078-.103.152-.208.23-.313.187-.257.38-.506.56-.77l.208-.302-.002-.02C58.143 41.857 60 36.14 60 30zm-2 0c0 4.972-1.31 9.642-3.59 13.694-1.608-5.328-6.327-9.19-11.986-9.642L42.386 34h-7.019c-.202 0-.366-.164-.366-.365v-.645c0-.183.15-.303.276-.352 6.44-2.42 10.455-12.464 9.613-19.488-.44-3.658-2.25-6.927-4.884-9.295C50.516 7.892 58 18.085 58 30zm-5.462 16.59c-.08.11-.162.217-.244.325-.223.293-.448.584-.682.868-.024.03-.05.057-.073.086-.81.97-1.682 1.887-2.612 2.742-.055.05-.11.103-.166.153-.277.25-.56.495-.848.735-.09.075-.18.15-.272.223-.28.227-.56.45-.847.666-.097.072-.197.14-.295.213-.165.12-.332.238-.5.355V48h-2v6.233l-.118.068c-.255.147-.51.292-.77.43-.176.093-.356.184-.536.275-.302.152-.606.3-.913.44-.15.07-.3.138-.45.204-.385.167-.774.327-1.166.478-.08.03-.16.065-.24.095-1 .374-2.023.692-3.064.95-.075.02-.15.034-.226.052-.43.103-.865.197-1.302.28l-.308.054L33.162 46H34v-2.465l4.47 2.98 4.174-10.432c5.28.595 9.524 4.673 10.247 10.012-.116.166-.23.332-.352.495zM23.482 57.226l-.225-.052c-1.04-.26-2.064-.576-3.064-.95-.08-.03-.16-.064-.24-.095-.393-.152-.782-.312-1.166-.48-.15-.066-.3-.135-.45-.204-.308-.14-.612-.288-.914-.44-.18-.09-.36-.18-.537-.276-.26-.137-.514-.283-.77-.428L16 54.234V48h-2v4.958c-.168-.117-.336-.235-.5-.355-.1-.072-.2-.14-.296-.214-.287-.217-.568-.44-.846-.666l-.274-.224c-.287-.24-.57-.483-.846-.734-.057-.05-.112-.104-.168-.155-.93-.854-1.803-1.77-2.61-2.74-.024-.03-.05-.058-.073-.087-.234-.284-.46-.575-.682-.868-.082-.108-.164-.216-.244-.325-.12-.163-.234-.33-.35-.495.723-5.34 4.967-9.417 10.246-10.012l4.173 10.432 4.47-2.98V46h.84l-1.72 11.566-.335-.06c-.437-.083-.872-.177-1.303-.28zm2.01-26.435C20.708 29.023 17 20.85 17 15c0-.128.015-.253.02-.38l.73-.903c1.652-1.964 4.47-2.526 7.013-1.4 1.022.454 2.11.683 3.237.683 2.97 0 5.64-1.615 7.028-4.184 3.182 1.045 6.022 3.015 7.943 5.498.294 6.1-3.293 14.533-8.397 16.452C33.617 31.126 33 32 33 32.99v.645c0 1.146.82 2.103 1.904 2.32L33.198 38h-6.396l-1.706-2.047C26.18 35.738 27 34.78 27 33.635V33c0-.986-.605-1.874-1.51-2.21zM30.04 2.003h.033c.49.003.97.03 1.43.083 4.96.553 9.126 4.005 10.752 8.59-2.115-1.843-4.708-3.26-7.497-4.028l-.86-.236-.333.827C32.645 9.522 30.46 11 28 11c-.845 0-1.662-.172-2.427-.51-2.766-1.225-5.786-.894-8.017.73.613-2.027 1.72-3.883 3.26-5.42C23.272 3.35 26.53 2 30.04 2zM34 40.162L37.47 36h3.053l-2.993 7.484L34 41.132v-.97zm-1.635 17.726c-.27.023-.54.05-.81.065-.513.028-1.03.047-1.548.047l-.103-.003c-.485-.002-.97-.017-1.45-.044-.264-.015-.53-.04-.796-.063-.186-.016-.37-.03-.556-.05L28.862 46h2.277l1.785 11.837c-.186.02-.373.035-.56.05zM32 44h-4v-4h4v4zm-6-3.838v.97l-3.53 2.353L19.48 36h3.054L26 40.162zM19.982 3.86c-.193.174-.392.338-.578.523C16.564 7.218 15 10.987 15 15c0 6.63 4.19 15.593 9.797 17.666.12.045.203.182.203.334v.635c0 .2-.164.365-.365.365h-6.491c-.096 0-.19.014-.28.04-5.786.342-10.64 4.238-12.273 9.655C3.31 39.642 2 34.972 2 30 2 18.09 9.478 7.9 19.982 3.86z"/></svg>