<svg xmlns="http://www.w3.org/2000/svg" viewBox="0 0 330.001 330.001"><path d="M324.57 93.45c-4.387-3.636-10.455-4.47-15.66-2.156l-78.444 34.863L177.48 46.68C174.7 42.507 170.017 40 165 40c-5.015 0-9.7 2.507-12.48 6.68l-52.985 79.477-78.442-34.863C15.887 88.98 9.82 89.814 5.43 93.45 1.045 97.084-.905 102.89.4 108.436l40 170C41.992 285.21 48.04 290 55 290h220c6.96 0 13.007-4.788 14.602-11.564l40-170c1.305-5.546-.645-11.352-5.032-14.986zM263.12 260h-97.79c-.217-.003-.435-.003-.652 0H66.88L36.524 130.98l62.385 27.728c6.678 2.966 14.52.692 18.573-5.387L165 82.044l47.52 71.278c4.053 6.08 11.896 8.353 18.572 5.388l62.386-27.727L263.12 260z"/><path d="M175.607 164.394c-5.857-5.858-15.355-5.858-21.213 0l-20 20c-5.858 5.857-5.858 15.355 0 21.213l20 20c2.93 2.93 6.768 4.394 10.606 4.394 3.84 0 7.678-1.464 10.606-4.393l20-20c5.858-5.857 5.858-15.355 0-21.213l-20-20z"/></svg>