<svg xmlns="http://www.w3.org/2000/svg" viewBox="0 0 306.033 306.033"><path d="M297.997 205.216l.02-24.17c0-.247-.024-.485-.036-.728l-.012-19.285c0-35.84-29.16-65-65-65H188.6l15.55-30.894c3.107-6.204 4.75-13.168 4.75-20.14 0-24.813-20.186-45-45-45-17.155 0-32.583 9.535-40.263 24.887L71.077 130h-48.06c-8.285 0-15 6.715-15 15v110c0 8.283 6.714 14.998 14.998 15l50.768.003c19.96 22.992 48.41 36.03 79.185 36.03h80c35.84 0 65-29.16 65-64.99l.004-5.124c.018-.3.045-.595.045-.898l-.02-29.806zm-65.03 70.817h-80c-23.825 0-45.706-10.946-60.03-30.033-2.834-3.774-7.277-5.995-11.997-5.996L38.017 240v-80.002h42.33c5.682 0 10.875-3.21 13.416-8.292l56.706-113.4c2.563-5.125 7.71-8.308 13.432-8.308 8.27 0 15 6.73 15 15 0 2.362-.53 4.616-1.56 6.675l-26.48 52.616c-2.342 4.65-2.104 10.18.627 14.61 2.73 4.433 7.563 7.132 12.77 7.132h68.721c19.294.006 34.988 15.704 34.988 35.008l.03 44.17-.03 35.82c0 19.302-15.7 35.003-35 35.003z"/></svg>