<svg xmlns="http://www.w3.org/2000/svg" viewBox="0 0 512 512"><path d="M510.502 366.95c-.103-3.588-2.37-6.758-5.74-8.008L451.68 339.28c36.16-34.064 58.6-71.886 58.6-100.554 0-51.576-39.514-67.995-64.688-70.134-4.54-9.573-11.213-23.175-19.15-38.032l-5.07-10.142c-.44-.877-1.043-1.62-1.718-2.287-21.903-39.206-50.624-81.755-72.136-81.755H162.76c-21.51 0-50.232 42.55-72.135 81.757-.675.666-1.28 1.41-1.718 2.287l-5.076 10.15c-7.933 14.854-14.603 28.452-19.143 38.023C39.513 170.733 0 187.15 0 238.726c0 33.662 30.87 79.967 78.657 117.96 53.38 42.45 117.706 66.796 176.482 66.796 37.89 0 78.072-10.168 116.156-28.73l38.27 76.032c1.125 2.234 3.153 3.883 5.567 4.536.756.206 1.52.305 2.294.305 1.684 0 3.35-.485 4.794-1.418l47.96-31.145c2.02-1.315 3.41-3.398 3.858-5.765.438-2.37-.112-4.816-1.52-6.77L455.38 406.82l43.84 22.247c1.254.64 2.612.954 3.978.954 1.64 0 3.273-.46 4.708-1.365 2.62-1.658 4.176-4.575 4.09-7.677l-1.494-54.03z" fill="#334F55"/><path d="M428.614 174.254c-20.096 13.588-60.554 38.078-81.097 38.078-14.168 0-28.542-4.11-43.775-8.46-15.714-4.493-31.978-9.136-48.603-9.136s-32.89 4.644-48.604 9.137c-15.233 4.347-29.607 8.46-43.775 8.46-20.516 0-60.992-24.492-81.096-38.08l15.59-31.18c1.78-3.343 3.566-6.654 5.366-9.92h305.033c1.82 3.302 3.625 6.648 5.423 10.027l15.538 31.074z" fill="#83A6E2"/><path d="M389.393 168.34c-9.408-16.278-26.926-26.39-45.716-26.39-18.79 0-36.31 10.113-45.717 26.39-1.58 2.723-1.58 6.082 0 8.805 9.408 16.277 26.926 26.39 45.717 26.39 18.79 0 36.308-10.113 45.717-26.39 1.58-2.723 1.58-6.083 0-8.806z" fill="#334F55"/><path d="M343.677 185.94c-10.73 0-20.844-4.954-27.468-13.198 6.623-8.244 16.736-13.197 27.467-13.197 10.73 0 20.844 4.953 27.468 13.197-6.625 8.244-16.737 13.197-27.468 13.197z" fill="#EAE8D2"/><path d="M167.72 141.95c-18.79 0-36.31 10.112-45.718 26.388-1.58 2.724-1.58 6.083 0 8.806 9.408 16.277 26.926 26.39 45.717 26.39s36.307-10.113 45.716-26.39c1.58-2.723 1.58-6.082 0-8.805-9.41-16.278-26.927-26.39-45.717-26.39z" fill="#334F55"/><path d="M167.72 185.94c-10.732 0-20.845-4.954-27.47-13.198 6.625-8.244 16.738-13.197 27.47-13.197s20.843 4.953 27.467 13.197c-6.625 8.244-16.737 13.197-27.468 13.197z" fill="#EAE8D2"/><g fill="#C5D35E"><path d="M162.76 53.97h184.757c9.572 0 29.52 26.536 50.13 61.585h-285.02c20.607-35.05 40.557-61.585 50.134-61.585zM17.596 238.726c0-46.23 38.883-51.978 50.16-52.676 12.963 9.042 64.853 43.878 95.005 43.878 16.626 0 32.89-4.644 48.604-9.137 15.233-4.346 29.607-8.458 43.775-8.458s28.54 4.11 43.774 8.46c15.714 4.493 31.978 9.136 48.603 9.136 30.15 0 82.038-34.834 95.003-43.877 11.32.705 50.163 6.47 50.163 52.676 0 53.62-112.388 167.16-237.543 167.16S17.596 292.346 17.596 238.726z"/></g><g fill="#83A6E2"><path d="M420.873 454.1l-33.976-67.488c7.562-4.215 15.012-8.753 22.315-13.625l43.63 60.354-31.97 20.76zM435.29 376.898c-.618-.316-1.28-.38-1.926-.537l-9.78-13.53c2.697-2.015 5.39-4.04 8.037-6.144 1.742-1.384 3.41-2.8 5.105-4.206.042.016.07.053.11.07l56.242 20.83.92 33.305-58.707-29.787z"/></g><path d="M437.55 282.96c-1.462-.36-36.06-8.445-78.014 1.05-16.745 3.784-34.22 10.752-51.112 17.487-21.178 8.437-41.17 16.41-55.485 16.41-15.853 0-36.662-8.244-58.682-16.973-16.333-6.478-33.224-13.17-49.23-16.827-41.644-9.528-75.34-1.486-76.74-1.138l-8.55 2.1 4.2 17.085 8.54-2.096c.31-.078 30.974-7.407 68.63 1.202 14.693 3.355 30.948 9.8 46.662 16.028 23.636 9.37 45.948 18.214 65.168 18.214 17.69 0 39.212-8.58 61.998-17.66 16.264-6.487 33.087-13.192 48.483-16.668 37.81-8.54 69.72-1.173 70.03-1.104L442 302.1l4.09-17.09-8.54-2.05z" fill="#334F55"/></svg>