<svg xmlns="http://www.w3.org/2000/svg" viewBox="0 0 512 512"><path d="M509.144 132.416c-1.814-1.648-4.254-2.44-6.686-2.203l-67.567 6.757 43.61-48.74c3.187-3.568 2.898-9.038-.66-12.237l-43.39-39.05c-1.916-1.734-4.5-2.527-7.094-2.132-2.56.382-4.822 1.895-6.152 4.115l-46.744 77.907c-11.16-12.854-22.14-21.373-31.68-21.373H160.542c-21.218 0-49.548 41.968-71.153 80.64-.667.658-1.262 1.393-1.695 2.257l-5.007 10.013c-7.826 14.65-14.405 28.063-18.883 37.504C38.975 227.984 0 244.18 0 295.052c0 33.203 30.45 78.877 77.585 116.352 52.652 41.873 116.102 65.885 174.076 65.885s121.425-24.014 174.077-65.886c47.135-37.475 77.585-83.15 77.585-116.352 0-50.873-38.974-67.068-63.805-69.178-3.248-6.846-7.598-15.78-12.726-25.758l76.1 3.805c.144.01.288.014.432.014 2.22 0 4.364-.852 5.983-2.39 1.72-1.64 2.695-3.91 2.695-6.288V138.85c0-2.455-1.034-4.79-2.856-6.434z" fill="#334F55"/><path d="M422.77 231.46c-19.82 13.4-59.728 37.558-79.99 37.558-13.976 0-28.154-4.055-43.18-8.343-15.5-4.432-31.54-9.013-47.94-9.013s-32.44 4.58-47.94 9.013c-15.026 4.288-29.204 8.343-43.18 8.343-20.236 0-60.16-24.157-79.99-37.56l15.378-30.756c1.755-3.297 3.516-6.562 5.292-9.785h300.875c1.794 3.257 3.575 6.558 5.35 9.89l15.326 30.652z" fill="#F1854C"/><path d="M384.085 225.624c-9.28-16.055-26.56-26.03-45.093-26.03s-35.814 9.975-45.093 26.03c-1.56 2.686-1.56 6 0 8.686 9.28 16.055 26.558 26.03 45.092 26.03s35.814-9.975 45.093-26.03c1.56-2.686 1.56-6 0-8.686z" fill="#334F55"/><path d="M338.992 242.984c-10.585 0-20.56-4.886-27.093-13.017 6.533-8.13 16.508-13.017 27.092-13.017s20.56 4.886 27.093 13.017c-6.534 8.13-16.51 13.017-27.093 13.017z" fill="#EAE8D2"/><path d="M165.432 199.594c-18.534 0-35.814 9.975-45.093 26.03-1.56 2.686-1.56 6 0 8.686 9.28 16.055 26.558 26.03 45.092 26.03s35.814-9.975 45.093-26.03c1.56-2.686 1.56-6 0-8.686-9.28-16.055-26.56-26.03-45.093-26.03z" fill="#334F55"/><path d="M485.966 295.052c0 52.89-110.856 164.88-234.305 164.88S17.357 347.943 17.357 295.053c0-45.6 38.353-51.27 49.477-51.958 12.785 8.918 63.968 43.28 93.71 43.28 16.397 0 32.44-4.58 47.94-9.013 15.025-4.287 29.203-8.342 43.178-8.342 13.976 0 28.154 4.055 43.18 8.343 15.5 4.433 31.54 9.014 47.94 9.014 29.74 0 80.92-34.36 93.708-43.28 11.165.695 49.478 6.38 49.478 51.958z" fill="#C5D35E"/><path d="M165.432 242.984c-10.585 0-20.56-4.886-27.093-13.017 6.533-8.13 16.508-13.017 27.092-13.017s20.56 4.886 27.093 13.017c-6.533 8.13-16.508 13.017-27.093 13.017z" fill="#EAE8D2"/><path d="M381.83 347.12c0 4.716-1.626 6.814-3.05 8.114-10.01 9.19-42.576 6.37-74.076 3.648-17.543-1.517-35.687-3.085-53.043-3.085s-35.5 1.568-53.04 3.085c-31.484 2.73-64.077 5.547-74.077-3.648-1.424-1.3-3.05-3.4-3.05-8.115v-8.68h-17.357v8.68c0 8.592 2.915 15.626 8.67 20.902 15.636 14.352 48.864 11.475 87.314 8.152 17.17-1.487 34.932-3.02 51.542-3.02s34.373 1.533 51.542 3.02c16.12 1.39 31.314 2.708 44.687 2.708 18.526 0 33.543-2.526 42.628-10.86 5.754-5.275 8.67-12.31 8.67-20.903v-8.68H381.83v8.68z" fill="#334F55"/><path d="M430.67 56.887l29.126 26.216-60.716 67.86c-4.284-6.815-8.683-13.42-13.128-19.553l44.717-74.523z" fill="#F1854C"/><path d="M160.542 112.815H342.78c9.442 0 29.118 26.174 49.446 60.746H111.09c20.327-34.57 40.005-60.745 49.452-60.745z" fill="#C5D35E"/><path d="M494.644 186.132l-77.055-3.85-1.963-3.926c-.434-.865-1.03-1.598-1.695-2.256-1.78-3.187-3.605-6.39-5.468-9.595l9.285-10.378 76.894-7.69v37.695z" fill="#F1854C"/></svg>