<svg xmlns="http://www.w3.org/2000/svg" viewBox="0 0 512 512"><path d="M447.095 207.7c-4.557-9.606-11.25-23.254-19.213-38.16l-5.088-10.177c-.44-.88-1.046-1.626-1.724-2.295-21.977-39.34-50.795-82.032-72.38-82.032H163.31c-9.606 0-20.648 8.493-31.882 21.348l-36.902-44.63c-2.854-3.456-7.853-4.227-11.63-1.766L48.14 72.686c-2.362 1.543-3.845 4.12-3.99 6.94-.14 2.815 1.068 5.53 3.258 7.31l54.652 44.327-69.135-16.27c-2.414-.566-4.897-.113-6.914 1.245-2.036 1.353-3.415 3.487-3.82 5.897L13.362 175.1c-.448 2.664.354 5.38 2.164 7.38 1.68 1.852 4.06 2.9 6.543 2.9.197 0 .387-.004.585-.022l55.097-3.673c-5.175 10.075-9.564 19.092-12.847 26.013C39.645 209.846 0 226.32 0 278.07c0 33.776 30.974 80.237 78.922 118.358 53.56 42.595 118.103 67.02 177.078 67.02s123.517-24.426 177.078-67.02C481.026 358.308 512 311.846 512 278.07c0-51.75-39.646-68.224-64.905-70.37z" fill="#334F55"/><path d="M430.06 213.38c-20.164 13.634-60.76 38.207-81.37 38.207-14.217 0-28.64-4.125-43.923-8.487-15.767-4.51-32.086-9.168-48.767-9.168s-33 4.66-48.767 9.168c-15.284 4.362-29.707 8.487-43.922 8.487-20.585 0-61.197-24.573-81.37-38.207l15.644-31.288c1.785-3.353 3.577-6.675 5.383-9.954H409.03c1.825 3.314 3.637 6.67 5.44 10.06l15.59 31.182z" fill="#E65F58"/><path d="M163.31 92.69h185.38c9.605 0 29.62 26.627 50.298 61.794H113.006C133.683 119.316 153.7 92.69 163.31 92.69z" fill="#C5D35E"/><g fill="#E65F58"><path d="M85.948 69.083l34.252 41.43c-1.916 2.618-3.824 5.317-5.72 8.09L67.93 80.85 85.95 69.083zM38.052 134.34l58.04 13.657c-1.758 3.03-3.478 6.058-5.162 9.07-.677.67-1.283 1.416-1.724 2.296l-2 4L32.613 167l5.44-32.66z"/></g><path d="M256 445.794c-125.577 0-238.345-113.922-238.345-167.724 0-46.386 39.015-52.153 50.33-52.854 13.005 9.072 65.07 44.026 95.325 44.026 16.68 0 33-4.66 48.767-9.168 15.285-4.362 29.707-8.487 43.922-8.487 14.214 0 28.637 4.125 43.92 8.487 15.768 4.51 32.087 9.168 48.768 9.168 30.253 0 82.315-34.95 95.323-44.025 11.36.706 50.333 6.49 50.333 52.853.002 53.802-112.766 167.724-238.343 167.724z" fill="#C5D35E"/><path d="M390.707 207.445c-9.44-16.332-27.017-26.48-45.87-26.48s-36.432 10.148-45.872 26.48c-1.586 2.733-1.586 6.103 0 8.836 9.44 16.333 27.017 26.48 45.87 26.48s36.432-10.148 45.872-26.48c1.586-2.732 1.586-6.102 0-8.835z" fill="#334F55"/><path d="M344.836 225.104c-10.767 0-20.914-4.97-27.56-13.24 6.647-8.272 16.793-13.242 27.56-13.242s20.914 4.97 27.56 13.24c-6.646 8.272-16.793 13.242-27.56 13.242z" fill="#EAE8D2"/><path d="M168.284 180.966c-18.854 0-36.43 10.147-45.87 26.48-1.587 2.732-1.587 6.102 0 8.835 9.44 16.333 27.016 26.48 45.87 26.48s36.43-10.148 45.87-26.48c1.587-2.732 1.587-6.102 0-8.835-9.44-16.332-27.016-26.48-45.87-26.48z" fill="#334F55"/><path d="M168.284 225.104c-10.767 0-20.914-4.97-27.56-13.24 6.647-8.272 16.793-13.242 27.56-13.242s20.914 4.97 27.56 13.24c-6.646 8.272-16.792 13.242-27.56 13.242z" fill="#EAE8D2"/><path d="M449.88 292.69c-.95.604-95.665 60.415-154.156 60.415-56.88 0-114.922-31.74-161.57-57.25l-6.344-3.465c-53.24-29.04-83.646-4.5-84.914-3.444-2.07 1.728-3.24 4.306-3.172 7.004.07 2.698 1.37 5.22 3.535 6.836 2.18 1.638 53.904 40.34 93.697 62.448 19.698 10.948 39.155 13.905 56.224 13.905 11.768 0 22.406-1.406 31.208-2.57 5.655-.75 10.543-1.397 13.957-1.397l2.62.026c45.56.633 84.25-3.997 114.81-13.682 56.337-17.866 102.294-52.896 104.225-54.38 3.74-2.878 4.56-8.193 1.853-12.064-2.706-3.858-7.982-4.914-11.974-2.383z" fill="#334F55"/><path d="M222.078 359.066c-20.405 2.71-48.362 6.4-76.552-9.263-27.51-15.285-61.922-39.5-79.74-52.392 10.67-2.723 28.654-3.115 53.576 10.48l6.328 3.456c29.888 16.345 64.284 35.16 100.68 47.16-1.38.172-2.818.36-4.292.56z" fill="#C5D35E"/></svg>