<svg xmlns="http://www.w3.org/2000/svg" viewBox="0 0 512 512"><path d="M448.195 225.875c-4.48-9.442-11.06-22.86-18.888-37.513l-5.002-10.004c-.434-.865-1.03-1.598-1.695-2.256-21.605-38.673-49.934-80.642-71.152-80.642H169.22c-9.694 0-20.876 8.788-32.22 21.993L89.88 38.926c-1.33-2.22-3.592-3.733-6.15-4.114-2.62-.402-5.18.398-7.094 2.13l-43.39 39.052c-3.56 3.2-3.847 8.67-.66 12.237l44.183 49.38-67.142-7.388c-2.466-.292-4.915.517-6.737 2.165C1.05 134.032 0 136.384 0 138.85v56.407c0 2.377.975 4.648 2.695 6.288 1.62 1.538 3.763 2.39 5.983 2.39.144 0 .288-.004.432-.013l76.098-3.804c-5.128 9.978-9.477 18.91-12.725 25.757-24.83 2.11-63.805 18.305-63.805 69.178 0 33.203 30.45 78.877 77.585 116.352 52.652 41.873 116.102 65.885 174.076 65.885s121.423-24.013 174.075-65.885C481.55 373.93 512 328.257 512 295.053c0-50.873-38.974-67.067-63.805-69.178z" fill="#334F55"/><path d="M431.45 231.46c-19.823 13.402-59.73 37.56-79.993 37.56-13.975 0-28.153-4.056-43.178-8.344-15.5-4.432-31.543-9.013-47.942-9.013s-32.44 4.58-47.94 9.013c-15.026 4.288-29.204 8.343-43.18 8.343-20.236 0-60.16-24.158-79.99-37.56l15.378-30.757c1.755-3.297 3.516-6.562 5.292-9.785h300.875c1.794 3.257 3.575 6.558 5.35 9.89l15.326 30.652z" fill="#E4AD4B"/><path d="M169.22 112.816h182.237c9.442 0 29.118 26.174 49.446 60.746H119.77c1.405-2.39 2.8-4.705 4.197-7.01l1.102-.986-.302-.337c7.548-12.383 14.866-23.32 21.507-32l.14-.084-.032-.056c9.583-12.5 17.726-20.274 22.837-20.274z" fill="#C5D35E"/><g fill="#E4AD4B"><path d="M80.415 56.888l45.13 75.21c-4.404 6.12-8.763 12.695-13.005 19.465l-61.252-68.46 29.127-26.215zM17.356 148.536L94.1 156.98l9.076 10.144c-1.74 3-3.443 5.996-5.108 8.978-.666.657-1.26 1.392-1.694 2.256l-1.96 3.922-77.057 3.854v-37.598z"/></g><path d="M260.34 459.935c-123.45 0-234.306-111.992-234.306-164.88 0-45.6 38.353-51.27 49.477-51.96 12.786 8.92 63.97 43.28 93.71 43.28 16.398 0 32.44-4.58 47.94-9.012 15.026-4.288 29.204-8.343 43.18-8.343 13.974 0 28.152 4.055 43.177 8.343 15.5 4.432 31.542 9.013 47.94 9.013 29.74 0 80.92-34.36 93.71-43.28 11.165.695 49.478 6.382 49.478 51.958 0 52.89-110.857 164.88-234.306 164.88z" fill="#C5D35E"/><path d="M392.763 225.625c-9.28-16.055-26.56-26.03-45.093-26.03s-35.814 9.975-45.093 26.03c-1.56 2.686-1.56 6 0 8.686 9.28 16.056 26.56 26.03 45.093 26.03s35.814-9.974 45.093-26.03c1.56-2.685 1.56-5.998 0-8.685z" fill="#334F55"/><path d="M347.67 242.985c-10.586 0-20.56-4.886-27.094-13.017 6.534-8.13 16.51-13.017 27.093-13.017s20.558 4.887 27.092 13.018c-6.533 8.132-16.508 13.017-27.093 13.017z" fill="#EAE8D2"/><path d="M174.11 199.596c-18.534 0-35.814 9.975-45.093 26.03-1.56 2.686-1.56 6 0 8.686 9.28 16.055 26.56 26.03 45.093 26.03s35.814-9.975 45.093-26.03c1.56-2.686 1.56-6 0-8.686-9.28-16.056-26.56-26.03-45.093-26.03z" fill="#334F55"/><path d="M174.11 242.985c-10.585 0-20.56-4.886-27.093-13.017 6.534-8.13 16.51-13.017 27.093-13.017s20.56 4.887 27.093 13.018c-6.533 8.132-16.508 13.017-27.093 13.017z" fill="#EAE8D2"/><path d="M390.508 321.087c0 29.52-66.907 60.746-130.17 60.746S130.17 350.608 130.17 321.087v-8.678h-17.356v8.677c0 47.678 87.373 78.102 147.525 78.102s147.524-30.425 147.524-78.103v-8.678h-17.356v8.677z" fill="#334F55"/></svg>