<svg xmlns="http://www.w3.org/2000/svg" viewBox="0 0 512 512"><path d="M451.4 296.142C439.936 400.445 457.322 512 256 512S72.065 400.446 60.602 296.142C37.678 87.535 76.91 0 255.993 0c179.1 0 218.332 87.535 195.407 296.142z" fill="#362928"/><path d="M80.543 296.142C58.05 91.472 95.41 3.356 265.963.104c-3.28-.062-6.592-.104-9.97-.104C76.91 0 37.676 87.535 60.602 296.142 72.065 400.446 54.68 512 256.003 512c3.386 0 6.705-.034 9.97-.097-190.77-3.656-174.16-113.213-185.43-215.76z" fill="#2E2322"/><path d="M377.255 221.257h-242.51c-16.714 0-30.263 13.53-30.263 30.22v32.625c0 27.24 22.115 49.323 49.397 49.323h204.243c27.28 0 49.397-22.083 49.397-49.323v-32.625c0-16.69-13.55-30.22-30.265-30.22z" fill="#FFE8D1"/><path d="M123.884 284.102v-32.624c0-16.69 13.55-30.22 30.264-30.22h-19.402c-16.715 0-30.264 13.53-30.264 30.22v32.624c0 27.24 22.115 49.323 49.397 49.323h19.4c-27.28 0-49.396-22.083-49.396-49.323z" fill="#EBC7A4"/><path d="M464.034 187.402H47.967c-2.38 0-4.31-1.93-4.31-4.31V121.87c0-2.38 1.93-4.31 4.31-4.31h416.067c2.38 0 4.31 1.93 4.31 4.31v61.222c.002 2.38-1.928 4.31-4.31 4.31z" fill="#F75534"/><path d="M63.057 187.402v-69.845h-15.09c-2.38 0-4.31 1.93-4.31 4.31v61.223c0 2.38 1.93 4.31 4.31 4.31h15.09v.002z" fill="#BD391E"/><path d="M322.12 198.644H189.88c-6.775 0-12.267-5.493-12.267-12.27v-67.792c0-6.776 5.493-12.268 12.268-12.268H322.12c6.776 0 12.268 5.493 12.268 12.268v67.793c.002 6.776-5.49 12.27-12.266 12.27z" fill="#D6D6D6"/><path d="M197.015 186.375v-67.793c0-6.776 5.493-12.27 12.27-12.27H189.88c-6.776 0-12.27 5.494-12.27 12.27v67.793c0 6.776 5.494 12.27 12.27 12.27h19.402c-6.776 0-12.27-5.494-12.27-12.27z" fill="#B3B3B3"/><g fill="#F75534"><path d="M225.685 178.348c-4.465 0-8.084-3.618-8.084-8.084v-35.57c0-4.465 3.62-8.084 8.085-8.084s8.084 3.618 8.084 8.084v35.57c0 4.466-3.62 8.084-8.085 8.084zM286.316 178.348c-4.465 0-8.084-3.618-8.084-8.084v-35.57c0-4.465 3.618-8.084 8.084-8.084 4.465 0 8.084 3.618 8.084 8.084v35.57c0 4.466-3.618 8.084-8.084 8.084zM256 178.348c-4.464 0-8.083-3.618-8.083-8.084v-35.57c0-4.465 3.62-8.084 8.084-8.084 4.466 0 8.085 3.618 8.085 8.084v35.57c0 4.466-3.62 8.084-8.084 8.084z"/></g><g fill="#2B2121"><path d="M195.833 283.258c-5.21 0-11.197-.37-17.474-1.474-17.64-3.108-29.77-14.725-30.277-15.217-3.204-3.11-3.28-8.23-.168-11.43 3.104-3.197 8.207-3.278 11.41-.19.238.226 9.328 8.71 21.838 10.914 15.603 2.75 29.19.066 29.327.04 4.377-.887 8.64 1.945 9.527 6.318.886 4.376-1.944 8.642-6.32 9.527-.445.09-7.65 1.513-17.864 1.513zM316.167 283.258c-10.213 0-17.417-1.423-17.866-1.514-4.375-.885-7.205-5.15-6.317-9.527.885-4.376 5.144-7.208 9.527-6.32.12.025 13.87 2.688 29.326-.038 12.595-2.22 21.73-10.807 21.816-10.894 3.204-3.112 8.323-3.034 11.43.168 3.112 3.204 3.035 8.322-.167 11.43-.508.493-12.638 12.11-30.276 15.218-6.274 1.106-12.264 1.476-17.473 1.476z"/></g></svg>